<?xml version="1.0" encoding="utf-8"?>
<!-- Generator: Adobe Illustrator 16.0.0, SVG Export Plug-In . SVG Version: 6.00 Build 0)  -->
<!DOCTYPE svg PUBLIC "-//W3C//DTD SVG 1.1//EN" "http://www.w3.org/Graphics/SVG/1.1/DTD/svg11.dtd">
<svg version="1.1" id="Layer_1" xmlns="http://www.w3.org/2000/svg" xmlns:xlink="http://www.w3.org/1999/xlink" x="0px" y="0px"
	 width="960px" height="560px" viewBox="0 0 960 560" enable-background="new 0 0 960 560" xml:space="preserve">
<g>
	<g id="XMLID_1_">
		<g>
			<path fill="#F1B13B" d="M778.361,253.99c6.101,30.479-2.5,62.8-12.51,81c-17.64,32.1-43.81,52.67-84,62.5
				c-13.98,3.42-29.37-0.11-44.5,3c-14.03,2.89-30.89,3.18-47,3c-23.18-22.05-45.81-51.03-57.01-84.5
				c-4.78-14.29-5.15-28.521-8.5-45c-2.48-12.24-6.96-38.41-4-53.01c4.83-19.66,9.67-39.33,14.5-59c4.56-16.54,5.1-39.23,13.5-53
				c22.029,0.83,44.189,10.43,63.51,16c59.3,17.09,124.46,40.53,152.5,89C771.531,225.52,775.321,238.83,778.361,253.99z"/>
			<path d="M766.852,201.48c23.92,34.34,29.91,96.46,7.5,138.01c-19.4,35.99-56.69,52.92-87.5,77.51
				c-24.18,19.29-36.09,63.07-66.5,74c-21.56,7.74-58.83,0.15-83.01,4.5c-15.92,2.86-31.021,4.88-44.5,10
				c-7.82,2.97-14.5,7.98-23.5,10c-16.86,3.78-35.71-4.6-42-12.5c-23.16-29.08,4.51-62.26,17-86c3.66-6.96,14.05-15.76,12-27.01
				c-8-52.16-16-104.34-24-156.5c-23.67-48-47.34-96.01-71.01-144.01c-19.88-3.19-23.28-16.91-36-26c-5.33-3.34-10.67-6.67-16-10
				c-6.81-4.5-17.24-7.07-15-19c2.33-2.17,4.67-4.34,7-6.5c15.06-0.3,26.79,6,39,9.5c27.81,7.96,54.96,15.24,81.51,24
				c13.83,4.56,40.32,8.38,49,17.5c-0.79,1.96-1.18,4.16-0.5,6.5c7.83,1.33,15.67,2.67,23.5,4c22.02,5.67,44.09,6.84,64.5,12.5
				C637.111,123.8,725.981,142.78,766.852,201.48z M765.852,334.99c10.01-18.2,18.61-50.521,12.51-81
				c-3.04-15.16-6.83-28.47-13.51-40.01c-28.04-48.47-93.2-71.91-152.5-89c-19.32-5.57-41.48-15.17-63.51-16
				c-8.4,13.77-8.94,36.46-13.5,53c-4.83,19.67-9.67,39.34-14.5,59c-2.96,14.6,1.52,40.77,4,53.01c3.35,16.479,3.72,30.71,8.5,45
				c11.2,33.47,33.83,62.45,57.01,84.5c16.11,0.18,32.97-0.11,47-3c15.13-3.11,30.52,0.42,44.5-3
				C722.042,387.66,748.212,367.09,765.852,334.99z M685.352,406.99c0-0.16,0-0.33,0-0.5c-0.5,0-1,0-1.5,0
				c-7.31,3.109-16.51,0.68-25.5,2.5c-22.17,1.84-44.34,3.67-66.5,5.51c-6.45,11.55-9.94,28.63-18.01,39.5
				c-5.83,4.66-11.66,9.33-17.5,14c-2.33,2.33-4.66,4.67-7,7c-4.66,0.16-9.33,0.33-14,0.5c-3.12,0.62-10.4,2.18-15,1
				c-5.66-3.17-11.33-6.34-17-9.5c-7.33-3.67-14.67-7.34-22-11c-6.67-9.5-13.34-19-20-28.5c-2.26-5.01-0.45-12.06-3.5-16.01
				c-0.5,0.34-1,0.67-1.5,1.01c-6.33,24.8-41.86,48.7-24,80c16.8,29.46,56.411,3.62,79-2c16.77-4.18,38.529-6.97,57-7
				c15.399-0.03,37.729,2.7,49.01-2.5c22.29-10.29,33.42-34.8,47.5-53.5C671.682,420.66,678.521,413.83,685.352,406.99z
				 M572.842,432c2.319-5.4,10.46-16.39,9-22.51c-7.16-8.33-14.33-16.66-21.5-25c-11.021-14.2-21.95-29.61-30-46.5
				c-10.95-22.971-11.82-51.681-17.5-80.5c-0.5-9.84-1-19.67-1.5-29.5c-23.16,3.33-46.34,6.66-69.5,10
				c7.33,47.66,14.67,95.34,22,143c2.17,14.5,4.33,29.01,6.5,43.51c3.67,4.83,7.33,9.66,11,14.5c2.6,3.82,4.31,8.33,8,11
				c9.069,6.55,38.16,22.55,55.5,16.5c3.84-3.5,7.67-7,11.5-10.5c3.5-2.67,7-5.34,10.5-8C568.842,442.66,570.842,437.33,572.842,432
				z M538.342,105.98c-22.5-4-45-8-67.5-12c-19.17-0.33-38.34-0.67-57.5-1c-9.11-0.26-35.6-5.47-42.01-2c16.34,33,32.67,66,49.01,99
				c3.97,7.77,13.35,33.89,19.5,37.51c5.5,1.97,26.16-3.16,32.5-4.51c13-1.83,26-3.66,39-5.5c3.12-2.14,5.58-21.66,7-27
				C525.012,162.32,531.682,134.14,538.342,105.98z M433.341,83.98c7.02,0,22.75,2.34,27.5-1c-5.54-4.6-15.56-5.02-23-7.5
				c-15.67-5-31.34-10-47.01-15c-5.55-1.93-15.83-6.26-21-4c-2.66,7.83-5.33,15.66-8,23.5
				C386.142,80.04,407.932,83.98,433.341,83.98z M352.332,75.48c2.67-7.67,5.34-15.34,8-23c-0.5-0.34-1-0.67-1.5-1
				c-9.18-4.67-44.27-14.4-56-14.5c0.17,1,0.33,2,0.5,3c9.33,5.83,18.67,11.66,28,17.5c6.27,5.63,10.91,16.6,20,19
				C351.671,76.14,352.001,75.81,352.332,75.48z"/>
			<path fill="#F1B13B" d="M683.852,406.49c0.5,0,1,0,1.5,0c0,0.17,0,0.34,0,0.5c-6.83,6.84-13.67,13.67-20.5,20.51
				c-14.08,18.7-25.21,43.21-47.5,53.5c-11.28,5.2-33.61,2.47-49.01,2.5c-18.471,0.03-40.23,2.82-57,7c-22.59,5.62-62.2,31.46-79,2
				c-17.86-31.3,17.67-55.2,24-80c0.5-0.34,1-0.67,1.5-1.01c3.05,3.95,1.24,11,3.5,16.01c6.66,9.5,13.33,19,20,28.5
				c7.33,3.66,14.67,7.33,22,11c5.67,3.16,11.34,6.33,17,9.5c4.6,1.18,11.88-0.38,15-1c4.67-0.17,9.34-0.34,14-0.5
				c2.34-2.33,4.67-4.67,7-7c5.84-4.67,11.67-9.34,17.5-14c8.069-10.87,11.56-27.95,18.01-39.5c22.16-1.84,44.33-3.67,66.5-5.51
				C667.342,407.17,676.542,409.6,683.852,406.49z M610.852,473.5c26.51-6.12,25.07-46.17-8.5-45c-7.93,4.41-14.48,7.29-17.51,16.5
				C579.871,460.11,595.401,477.06,610.852,473.5z M465.841,499.5c24.5-6.26,20.6-45.15-12-44c-7.72,4.18-14.72,8.01-17,17.5
				C432.802,489.78,448.392,503.96,465.841,499.5z"/>
			<path d="M602.352,428.5c33.57-1.17,35.01,38.88,8.5,45c-15.45,3.56-30.98-13.39-26.01-28.5
				C587.871,435.79,594.422,432.91,602.352,428.5z M617.352,459c2.95-10.88,0.85-19.87-11.5-20
				C584.602,448,600.332,472.38,617.352,459z"/>
			<path fill="#F1B13B" d="M581.842,409.49c1.46,6.12-6.681,17.109-9,22.51c-2,5.33-4,10.66-6,16c-3.5,2.66-7,5.33-10.5,8
				c-3.83,3.5-7.66,7-11.5,10.5c-17.34,6.05-46.431-9.95-55.5-16.5c-3.69-2.67-5.4-7.18-8-11c-3.67-4.84-7.33-9.67-11-14.5
				c-2.17-14.5-4.33-29.01-6.5-43.51c-7.33-47.66-14.67-95.34-22-143c23.16-3.34,46.34-6.67,69.5-10c0.5,9.83,1,19.66,1.5,29.5
				c5.68,28.819,6.55,57.529,17.5,80.5c8.05,16.89,18.979,32.3,30,46.5C567.512,392.83,574.682,401.16,581.842,409.49z"/>
			<path fill="#F1B13B" d="M470.841,93.98c22.5,4,45,8,67.5,12c-6.66,28.16-13.33,56.34-20,84.5c-1.42,5.34-3.88,24.86-7,27
				c-13,1.84-26,3.67-39,5.5c-6.34,1.35-27,6.48-32.5,4.51c-6.15-3.62-15.53-29.74-19.5-37.51c-16.34-33-32.67-66-49.01-99
				c6.41-3.47,32.9,1.74,42.01,2C432.501,93.31,451.671,93.65,470.841,93.98z"/>
			<path d="M453.841,455.5c32.6-1.15,36.5,37.74,12,44c-17.45,4.46-33.04-9.72-29-26.5C439.122,463.51,446.122,459.68,453.841,455.5
				z M470.341,484.5c0.49-4.43,0.48-9.72-0.5-13.5c-4.15-3.25-5.92-5.16-14-5c-3.49,2.08-5.22,3.93-8,6.5
				c0.16,3.83,0.33,7.67,0.5,11.5C454.312,492.57,463.631,489.9,470.341,484.5z"/>
			<path fill="#F1B13B" d="M460.841,82.98c-4.75,3.34-20.48,1-27.5,1c-25.41,0-47.2-3.94-71.51-4c2.67-7.84,5.34-15.67,8-23.5
				c5.17-2.26,15.45,2.07,21,4c15.67,5,31.34,10,47.01,15C445.282,77.96,455.302,78.38,460.841,82.98z"/>
			<path fill="#F1B13B" d="M360.332,52.48c-2.66,7.66-5.33,15.33-8,23c-0.33,0.33-0.66,0.66-1,1c-9.09-2.4-13.73-13.37-20-19
				c-9.33-5.84-18.67-11.67-28-17.5c-0.17-1-0.33-2-0.5-3c11.73,0.1,46.82,9.83,56,14.5C359.332,51.81,359.832,52.14,360.332,52.48z
				"/>
		</g>
		<g>
		</g>
	</g>
</g>
</svg>
